# xmcd
#
# Track frame offsets: 
#        150
#        21455
#        45965
#        69820
#        89643
#        111735
#        134640
#        158333
#
# Disc length: 2379 seconds
#
# Revision: 2
# Processed by: cddbd v1.5.2PL0 Copyright (c) Steve Scherf et al.
# Submitted via: ExactAudioCopy v1.0b3
#
DISCID=68094908
DTITLE=La Msma Gente - Caliche
DYEAR=1994
DGENRE=Salsa
TTITLE0=No Volvere
TTITLE1=Caliche
TTITLE2=Canto por la Paz
TTITLE3=Ensename
TTITLE4=Soy tu Amigo
TTITLE5=Una Fiesta en mi Ranchito
TTITLE6=Beso Gitano
TTITLE7=Un Verano en Cali
EXTD=YEAR: 1994
EXTT0=
EXTT1=
EXTT2=
EXTT3=
EXTT4=
EXTT5=
EXTT6=
EXTT7=
PLAYORDER=
